%TF.GenerationSoftware,KiCad,Pcbnew,7.0.8*%
%TF.CreationDate,2024-12-20T13:03:20+01:00*%
%TF.ProjectId,NosacReleja,4e6f7361-6352-4656-9c65-6a612e6b6963,rev?*%
%TF.SameCoordinates,Original*%
%TF.FileFunction,Soldermask,Top*%
%TF.FilePolarity,Negative*%
%FSLAX46Y46*%
G04 Gerber Fmt 4.6, Leading zero omitted, Abs format (unit mm)*
G04 Created by KiCad (PCBNEW 7.0.8) date 2024-12-20 13:03:20*
%MOMM*%
%LPD*%
G01*
G04 APERTURE LIST*
%ADD10C,3.000000*%
%ADD11C,2.500000*%
%ADD12R,2.600000X2.600000*%
%ADD13C,2.600000*%
G04 APERTURE END LIST*
D10*
%TO.C,K6*%
X98180000Y-97790000D03*
D11*
X100130000Y-103840000D03*
D10*
X112330000Y-103840000D03*
X112380000Y-91790000D03*
D11*
X100130000Y-91840000D03*
%TD*%
D12*
%TO.C,J2*%
X160020000Y-53420000D03*
D13*
X160020000Y-58420000D03*
X160020000Y-63420000D03*
X160020000Y-68420000D03*
X160020000Y-73420000D03*
X160020000Y-78420000D03*
X160020000Y-83420000D03*
X160020000Y-88420000D03*
X160020000Y-93420000D03*
X160020000Y-98420000D03*
%TD*%
D10*
%TO.C,K8*%
X98180000Y-118110000D03*
D11*
X100130000Y-124160000D03*
D10*
X112330000Y-124160000D03*
X112380000Y-112110000D03*
D11*
X100130000Y-112160000D03*
%TD*%
D10*
%TO.C,K3*%
X75320000Y-67310000D03*
D11*
X77270000Y-73360000D03*
D10*
X89470000Y-73360000D03*
X89520000Y-61310000D03*
D11*
X77270000Y-61360000D03*
%TD*%
D12*
%TO.C,J1*%
X46025000Y-116480000D03*
D13*
X46025000Y-111480000D03*
X46025000Y-106480000D03*
X46025000Y-101480000D03*
X46025000Y-96480000D03*
X46025000Y-91480000D03*
X46025000Y-86480000D03*
X46025000Y-81480000D03*
X46025000Y-76480000D03*
X46025000Y-71480000D03*
%TD*%
D10*
%TO.C,K5*%
X75320000Y-87630000D03*
D11*
X77270000Y-93680000D03*
D10*
X89470000Y-93680000D03*
X89520000Y-81630000D03*
D11*
X77270000Y-81680000D03*
%TD*%
D10*
%TO.C,K1*%
X75320000Y-45720000D03*
D11*
X77270000Y-51770000D03*
D10*
X89470000Y-51770000D03*
X89520000Y-39720000D03*
D11*
X77270000Y-39770000D03*
%TD*%
D10*
%TO.C,K2*%
X98180000Y-57150000D03*
D11*
X100130000Y-63200000D03*
D10*
X112330000Y-63200000D03*
X112380000Y-51150000D03*
D11*
X100130000Y-51200000D03*
%TD*%
D10*
%TO.C,K7*%
X75320000Y-107950000D03*
D11*
X77270000Y-114000000D03*
D10*
X89470000Y-114000000D03*
X89520000Y-101950000D03*
D11*
X77270000Y-102000000D03*
%TD*%
D10*
%TO.C,K4*%
X98180000Y-77470000D03*
D11*
X100130000Y-83520000D03*
D10*
X112330000Y-83520000D03*
X112380000Y-71470000D03*
D11*
X100130000Y-71520000D03*
%TD*%
M02*
