%TF.GenerationSoftware,KiCad,Pcbnew,7.0.8*%
%TF.CreationDate,2024-12-20T13:03:20+01:00*%
%TF.ProjectId,NosacReleja,4e6f7361-6352-4656-9c65-6a612e6b6963,rev?*%
%TF.SameCoordinates,Original*%
%TF.FileFunction,Legend,Top*%
%TF.FilePolarity,Positive*%
%FSLAX46Y46*%
G04 Gerber Fmt 4.6, Leading zero omitted, Abs format (unit mm)*
G04 Created by KiCad (PCBNEW 7.0.8) date 2024-12-20 13:03:20*
%MOMM*%
%LPD*%
G01*
G04 APERTURE LIST*
%ADD10C,0.150000*%
%ADD11C,0.120000*%
G04 APERTURE END LIST*
D10*
X153070112Y-103590771D02*
X153212969Y-103447914D01*
X153212969Y-103447914D02*
X153498684Y-103305057D01*
X153498684Y-103305057D02*
X154212969Y-103305057D01*
X154212969Y-103305057D02*
X154498684Y-103447914D01*
X154498684Y-103447914D02*
X154641541Y-103590771D01*
X154641541Y-103590771D02*
X154784398Y-103876485D01*
X154784398Y-103876485D02*
X154784398Y-104162200D01*
X154784398Y-104162200D02*
X154641541Y-104590771D01*
X154641541Y-104590771D02*
X152927255Y-106305057D01*
X152927255Y-106305057D02*
X154784398Y-106305057D01*
X155927255Y-103590771D02*
X156070112Y-103447914D01*
X156070112Y-103447914D02*
X156355827Y-103305057D01*
X156355827Y-103305057D02*
X157070112Y-103305057D01*
X157070112Y-103305057D02*
X157355827Y-103447914D01*
X157355827Y-103447914D02*
X157498684Y-103590771D01*
X157498684Y-103590771D02*
X157641541Y-103876485D01*
X157641541Y-103876485D02*
X157641541Y-104162200D01*
X157641541Y-104162200D02*
X157498684Y-104590771D01*
X157498684Y-104590771D02*
X155784398Y-106305057D01*
X155784398Y-106305057D02*
X157641541Y-106305057D01*
X159498684Y-103305057D02*
X159784398Y-103305057D01*
X159784398Y-103305057D02*
X160070112Y-103447914D01*
X160070112Y-103447914D02*
X160212970Y-103590771D01*
X160212970Y-103590771D02*
X160355827Y-103876485D01*
X160355827Y-103876485D02*
X160498684Y-104447914D01*
X160498684Y-104447914D02*
X160498684Y-105162200D01*
X160498684Y-105162200D02*
X160355827Y-105733628D01*
X160355827Y-105733628D02*
X160212970Y-106019342D01*
X160212970Y-106019342D02*
X160070112Y-106162200D01*
X160070112Y-106162200D02*
X159784398Y-106305057D01*
X159784398Y-106305057D02*
X159498684Y-106305057D01*
X159498684Y-106305057D02*
X159212970Y-106162200D01*
X159212970Y-106162200D02*
X159070112Y-106019342D01*
X159070112Y-106019342D02*
X158927255Y-105733628D01*
X158927255Y-105733628D02*
X158784398Y-105162200D01*
X158784398Y-105162200D02*
X158784398Y-104447914D01*
X158784398Y-104447914D02*
X158927255Y-103876485D01*
X158927255Y-103876485D02*
X159070112Y-103590771D01*
X159070112Y-103590771D02*
X159212970Y-103447914D01*
X159212970Y-103447914D02*
X159498684Y-103305057D01*
X161355827Y-103305057D02*
X162355827Y-106305057D01*
X162355827Y-106305057D02*
X163355827Y-103305057D01*
X164212970Y-105447914D02*
X165641542Y-105447914D01*
X163927256Y-106305057D02*
X164927256Y-103305057D01*
X164927256Y-103305057D02*
X165927256Y-106305057D01*
X168641542Y-106019342D02*
X168498685Y-106162200D01*
X168498685Y-106162200D02*
X168070113Y-106305057D01*
X168070113Y-106305057D02*
X167784399Y-106305057D01*
X167784399Y-106305057D02*
X167355828Y-106162200D01*
X167355828Y-106162200D02*
X167070113Y-105876485D01*
X167070113Y-105876485D02*
X166927256Y-105590771D01*
X166927256Y-105590771D02*
X166784399Y-105019342D01*
X166784399Y-105019342D02*
X166784399Y-104590771D01*
X166784399Y-104590771D02*
X166927256Y-104019342D01*
X166927256Y-104019342D02*
X167070113Y-103733628D01*
X167070113Y-103733628D02*
X167355828Y-103447914D01*
X167355828Y-103447914D02*
X167784399Y-103305057D01*
X167784399Y-103305057D02*
X168070113Y-103305057D01*
X168070113Y-103305057D02*
X168498685Y-103447914D01*
X168498685Y-103447914D02*
X168641542Y-103590771D01*
X38912969Y-65792200D02*
X41198684Y-65792200D01*
X40055826Y-66935057D02*
X40055826Y-64649342D01*
X44198684Y-66935057D02*
X42484398Y-66935057D01*
X43341541Y-66935057D02*
X43341541Y-63935057D01*
X43341541Y-63935057D02*
X43055827Y-64363628D01*
X43055827Y-64363628D02*
X42770112Y-64649342D01*
X42770112Y-64649342D02*
X42484398Y-64792200D01*
X45341541Y-64220771D02*
X45484398Y-64077914D01*
X45484398Y-64077914D02*
X45770113Y-63935057D01*
X45770113Y-63935057D02*
X46484398Y-63935057D01*
X46484398Y-63935057D02*
X46770113Y-64077914D01*
X46770113Y-64077914D02*
X46912970Y-64220771D01*
X46912970Y-64220771D02*
X47055827Y-64506485D01*
X47055827Y-64506485D02*
X47055827Y-64792200D01*
X47055827Y-64792200D02*
X46912970Y-65220771D01*
X46912970Y-65220771D02*
X45198684Y-66935057D01*
X45198684Y-66935057D02*
X47055827Y-66935057D01*
X47912970Y-63935057D02*
X48912970Y-66935057D01*
X48912970Y-66935057D02*
X49912970Y-63935057D01*
X105541905Y-107444819D02*
X105541905Y-106444819D01*
X106113333Y-107444819D02*
X105684762Y-106873390D01*
X106113333Y-106444819D02*
X105541905Y-107016247D01*
X106970476Y-106444819D02*
X106780000Y-106444819D01*
X106780000Y-106444819D02*
X106684762Y-106492438D01*
X106684762Y-106492438D02*
X106637143Y-106540057D01*
X106637143Y-106540057D02*
X106541905Y-106682914D01*
X106541905Y-106682914D02*
X106494286Y-106873390D01*
X106494286Y-106873390D02*
X106494286Y-107254342D01*
X106494286Y-107254342D02*
X106541905Y-107349580D01*
X106541905Y-107349580D02*
X106589524Y-107397200D01*
X106589524Y-107397200D02*
X106684762Y-107444819D01*
X106684762Y-107444819D02*
X106875238Y-107444819D01*
X106875238Y-107444819D02*
X106970476Y-107397200D01*
X106970476Y-107397200D02*
X107018095Y-107349580D01*
X107018095Y-107349580D02*
X107065714Y-107254342D01*
X107065714Y-107254342D02*
X107065714Y-107016247D01*
X107065714Y-107016247D02*
X107018095Y-106921009D01*
X107018095Y-106921009D02*
X106970476Y-106873390D01*
X106970476Y-106873390D02*
X106875238Y-106825771D01*
X106875238Y-106825771D02*
X106684762Y-106825771D01*
X106684762Y-106825771D02*
X106589524Y-106873390D01*
X106589524Y-106873390D02*
X106541905Y-106921009D01*
X106541905Y-106921009D02*
X106494286Y-107016247D01*
X165734819Y-76253333D02*
X166449104Y-76253333D01*
X166449104Y-76253333D02*
X166591961Y-76300952D01*
X166591961Y-76300952D02*
X166687200Y-76396190D01*
X166687200Y-76396190D02*
X166734819Y-76539047D01*
X166734819Y-76539047D02*
X166734819Y-76634285D01*
X165830057Y-75824761D02*
X165782438Y-75777142D01*
X165782438Y-75777142D02*
X165734819Y-75681904D01*
X165734819Y-75681904D02*
X165734819Y-75443809D01*
X165734819Y-75443809D02*
X165782438Y-75348571D01*
X165782438Y-75348571D02*
X165830057Y-75300952D01*
X165830057Y-75300952D02*
X165925295Y-75253333D01*
X165925295Y-75253333D02*
X166020533Y-75253333D01*
X166020533Y-75253333D02*
X166163390Y-75300952D01*
X166163390Y-75300952D02*
X166734819Y-75872380D01*
X166734819Y-75872380D02*
X166734819Y-75253333D01*
X105541905Y-127764819D02*
X105541905Y-126764819D01*
X106113333Y-127764819D02*
X105684762Y-127193390D01*
X106113333Y-126764819D02*
X105541905Y-127336247D01*
X106684762Y-127193390D02*
X106589524Y-127145771D01*
X106589524Y-127145771D02*
X106541905Y-127098152D01*
X106541905Y-127098152D02*
X106494286Y-127002914D01*
X106494286Y-127002914D02*
X106494286Y-126955295D01*
X106494286Y-126955295D02*
X106541905Y-126860057D01*
X106541905Y-126860057D02*
X106589524Y-126812438D01*
X106589524Y-126812438D02*
X106684762Y-126764819D01*
X106684762Y-126764819D02*
X106875238Y-126764819D01*
X106875238Y-126764819D02*
X106970476Y-126812438D01*
X106970476Y-126812438D02*
X107018095Y-126860057D01*
X107018095Y-126860057D02*
X107065714Y-126955295D01*
X107065714Y-126955295D02*
X107065714Y-127002914D01*
X107065714Y-127002914D02*
X107018095Y-127098152D01*
X107018095Y-127098152D02*
X106970476Y-127145771D01*
X106970476Y-127145771D02*
X106875238Y-127193390D01*
X106875238Y-127193390D02*
X106684762Y-127193390D01*
X106684762Y-127193390D02*
X106589524Y-127241009D01*
X106589524Y-127241009D02*
X106541905Y-127288628D01*
X106541905Y-127288628D02*
X106494286Y-127383866D01*
X106494286Y-127383866D02*
X106494286Y-127574342D01*
X106494286Y-127574342D02*
X106541905Y-127669580D01*
X106541905Y-127669580D02*
X106589524Y-127717200D01*
X106589524Y-127717200D02*
X106684762Y-127764819D01*
X106684762Y-127764819D02*
X106875238Y-127764819D01*
X106875238Y-127764819D02*
X106970476Y-127717200D01*
X106970476Y-127717200D02*
X107018095Y-127669580D01*
X107018095Y-127669580D02*
X107065714Y-127574342D01*
X107065714Y-127574342D02*
X107065714Y-127383866D01*
X107065714Y-127383866D02*
X107018095Y-127288628D01*
X107018095Y-127288628D02*
X106970476Y-127241009D01*
X106970476Y-127241009D02*
X106875238Y-127193390D01*
X82681905Y-76964819D02*
X82681905Y-75964819D01*
X83253333Y-76964819D02*
X82824762Y-76393390D01*
X83253333Y-75964819D02*
X82681905Y-76536247D01*
X83586667Y-75964819D02*
X84205714Y-75964819D01*
X84205714Y-75964819D02*
X83872381Y-76345771D01*
X83872381Y-76345771D02*
X84015238Y-76345771D01*
X84015238Y-76345771D02*
X84110476Y-76393390D01*
X84110476Y-76393390D02*
X84158095Y-76441009D01*
X84158095Y-76441009D02*
X84205714Y-76536247D01*
X84205714Y-76536247D02*
X84205714Y-76774342D01*
X84205714Y-76774342D02*
X84158095Y-76869580D01*
X84158095Y-76869580D02*
X84110476Y-76917200D01*
X84110476Y-76917200D02*
X84015238Y-76964819D01*
X84015238Y-76964819D02*
X83729524Y-76964819D01*
X83729524Y-76964819D02*
X83634286Y-76917200D01*
X83634286Y-76917200D02*
X83586667Y-76869580D01*
X39219819Y-94313333D02*
X39934104Y-94313333D01*
X39934104Y-94313333D02*
X40076961Y-94360952D01*
X40076961Y-94360952D02*
X40172200Y-94456190D01*
X40172200Y-94456190D02*
X40219819Y-94599047D01*
X40219819Y-94599047D02*
X40219819Y-94694285D01*
X40219819Y-93313333D02*
X40219819Y-93884761D01*
X40219819Y-93599047D02*
X39219819Y-93599047D01*
X39219819Y-93599047D02*
X39362676Y-93694285D01*
X39362676Y-93694285D02*
X39457914Y-93789523D01*
X39457914Y-93789523D02*
X39505533Y-93884761D01*
X82681905Y-97284819D02*
X82681905Y-96284819D01*
X83253333Y-97284819D02*
X82824762Y-96713390D01*
X83253333Y-96284819D02*
X82681905Y-96856247D01*
X84158095Y-96284819D02*
X83681905Y-96284819D01*
X83681905Y-96284819D02*
X83634286Y-96761009D01*
X83634286Y-96761009D02*
X83681905Y-96713390D01*
X83681905Y-96713390D02*
X83777143Y-96665771D01*
X83777143Y-96665771D02*
X84015238Y-96665771D01*
X84015238Y-96665771D02*
X84110476Y-96713390D01*
X84110476Y-96713390D02*
X84158095Y-96761009D01*
X84158095Y-96761009D02*
X84205714Y-96856247D01*
X84205714Y-96856247D02*
X84205714Y-97094342D01*
X84205714Y-97094342D02*
X84158095Y-97189580D01*
X84158095Y-97189580D02*
X84110476Y-97237200D01*
X84110476Y-97237200D02*
X84015238Y-97284819D01*
X84015238Y-97284819D02*
X83777143Y-97284819D01*
X83777143Y-97284819D02*
X83681905Y-97237200D01*
X83681905Y-97237200D02*
X83634286Y-97189580D01*
X82681905Y-55374819D02*
X82681905Y-54374819D01*
X83253333Y-55374819D02*
X82824762Y-54803390D01*
X83253333Y-54374819D02*
X82681905Y-54946247D01*
X84205714Y-55374819D02*
X83634286Y-55374819D01*
X83920000Y-55374819D02*
X83920000Y-54374819D01*
X83920000Y-54374819D02*
X83824762Y-54517676D01*
X83824762Y-54517676D02*
X83729524Y-54612914D01*
X83729524Y-54612914D02*
X83634286Y-54660533D01*
X105541905Y-66804819D02*
X105541905Y-65804819D01*
X106113333Y-66804819D02*
X105684762Y-66233390D01*
X106113333Y-65804819D02*
X105541905Y-66376247D01*
X106494286Y-65900057D02*
X106541905Y-65852438D01*
X106541905Y-65852438D02*
X106637143Y-65804819D01*
X106637143Y-65804819D02*
X106875238Y-65804819D01*
X106875238Y-65804819D02*
X106970476Y-65852438D01*
X106970476Y-65852438D02*
X107018095Y-65900057D01*
X107018095Y-65900057D02*
X107065714Y-65995295D01*
X107065714Y-65995295D02*
X107065714Y-66090533D01*
X107065714Y-66090533D02*
X107018095Y-66233390D01*
X107018095Y-66233390D02*
X106446667Y-66804819D01*
X106446667Y-66804819D02*
X107065714Y-66804819D01*
X82681905Y-117604819D02*
X82681905Y-116604819D01*
X83253333Y-117604819D02*
X82824762Y-117033390D01*
X83253333Y-116604819D02*
X82681905Y-117176247D01*
X83586667Y-116604819D02*
X84253333Y-116604819D01*
X84253333Y-116604819D02*
X83824762Y-117604819D01*
X105541905Y-87124819D02*
X105541905Y-86124819D01*
X106113333Y-87124819D02*
X105684762Y-86553390D01*
X106113333Y-86124819D02*
X105541905Y-86696247D01*
X106970476Y-86458152D02*
X106970476Y-87124819D01*
X106732381Y-86077200D02*
X106494286Y-86791485D01*
X106494286Y-86791485D02*
X107113333Y-86791485D01*
D11*
%TO.C,K6*%
X96780000Y-89990000D02*
X96780000Y-96590000D01*
X96780000Y-89990000D02*
X116580000Y-89990000D01*
X96780000Y-98990000D02*
X96780000Y-105590000D01*
X100830000Y-97840000D02*
X100030000Y-97840000D01*
X100830000Y-97840000D02*
X100830000Y-101440000D01*
X101730000Y-103840000D02*
X104230000Y-103840000D01*
X102230000Y-96040000D02*
X106230000Y-96040000D01*
X102230000Y-99640000D02*
X102230000Y-96040000D01*
X104230000Y-91840000D02*
X101730000Y-91840000D01*
X104230000Y-91840000D02*
X104230000Y-96040000D01*
X104230000Y-99640000D02*
X104230000Y-103840000D01*
X106230000Y-96040000D02*
X106230000Y-99640000D01*
X106230000Y-99640000D02*
X102230000Y-96040000D01*
X106230000Y-99640000D02*
X102230000Y-99640000D01*
X107630000Y-97840000D02*
X107630000Y-101440000D01*
X107630000Y-97840000D02*
X109130000Y-97840000D01*
X107630000Y-101440000D02*
X100830000Y-101440000D01*
X109130000Y-97840000D02*
X113730000Y-95340000D01*
X112330000Y-93590000D02*
X112330000Y-96090000D01*
X112330000Y-101990000D02*
X112330000Y-99540000D01*
X116580000Y-89990000D02*
X116580000Y-105590000D01*
X116580000Y-105590000D02*
X96780000Y-105590000D01*
%TO.C,J2*%
X155860000Y-50620000D02*
X155120000Y-50620000D01*
X155120000Y-50620000D02*
X155120000Y-51120000D01*
X165281000Y-50860000D02*
X155360000Y-50860000D01*
X165281000Y-50860000D02*
X165281000Y-100980000D01*
X162321000Y-50860000D02*
X162321000Y-100980000D01*
X157420000Y-50860000D02*
X157420000Y-100980000D01*
X155920000Y-50860000D02*
X155920000Y-100980000D01*
X155360000Y-50860000D02*
X155360000Y-100980000D01*
X158997000Y-57193000D02*
X158951000Y-57146000D01*
X158781000Y-57386000D02*
X158746000Y-57351000D01*
X161295000Y-59490000D02*
X161259000Y-59455000D01*
X161089000Y-59695000D02*
X161043000Y-59648000D01*
X158997000Y-62193000D02*
X158951000Y-62146000D01*
X158781000Y-62386000D02*
X158746000Y-62351000D01*
X161295000Y-64490000D02*
X161259000Y-64455000D01*
X161089000Y-64695000D02*
X161043000Y-64648000D01*
X158997000Y-67193000D02*
X158951000Y-67146000D01*
X158781000Y-67386000D02*
X158746000Y-67351000D01*
X161295000Y-69490000D02*
X161259000Y-69455000D01*
X161089000Y-69695000D02*
X161043000Y-69648000D01*
X158997000Y-72193000D02*
X158951000Y-72146000D01*
X158781000Y-72386000D02*
X158746000Y-72351000D01*
X161295000Y-74490000D02*
X161259000Y-74455000D01*
X161089000Y-74695000D02*
X161043000Y-74648000D01*
X158997000Y-77193000D02*
X158951000Y-77146000D01*
X158781000Y-77386000D02*
X158746000Y-77351000D01*
X161295000Y-79490000D02*
X161259000Y-79455000D01*
X161089000Y-79695000D02*
X161043000Y-79648000D01*
X158997000Y-82193000D02*
X158951000Y-82146000D01*
X158781000Y-82386000D02*
X158746000Y-82351000D01*
X161295000Y-84490000D02*
X161259000Y-84455000D01*
X161089000Y-84695000D02*
X161043000Y-84648000D01*
X158997000Y-87193000D02*
X158951000Y-87146000D01*
X158781000Y-87386000D02*
X158746000Y-87351000D01*
X161295000Y-89490000D02*
X161259000Y-89455000D01*
X161089000Y-89695000D02*
X161043000Y-89648000D01*
X158997000Y-92193000D02*
X158951000Y-92146000D01*
X158781000Y-92386000D02*
X158746000Y-92351000D01*
X161295000Y-94490000D02*
X161259000Y-94455000D01*
X161089000Y-94695000D02*
X161043000Y-94648000D01*
X158997000Y-97193000D02*
X158951000Y-97146000D01*
X158781000Y-97386000D02*
X158746000Y-97351000D01*
X161295000Y-99490000D02*
X161259000Y-99455000D01*
X161089000Y-99695000D02*
X161043000Y-99648000D01*
X165281000Y-100980000D02*
X155360000Y-100980000D01*
X160703999Y-51885001D02*
G75*
G03*
X159336958Y-51884574I-684000J-1534992D01*
G01*
X161554999Y-54103999D02*
G75*
G03*
X161555426Y-52736958I-1534992J684000D01*
G01*
X158485001Y-52736000D02*
G75*
G03*
X158339748Y-53448805I1535000J-683999D01*
G01*
X158340001Y-53420000D02*
G75*
G03*
X158485245Y-54103318I1679999J0D01*
G01*
X159336000Y-54955000D02*
G75*
G03*
X160703042Y-54955426I684000J1535000D01*
G01*
X161700000Y-58420000D02*
G75*
G03*
X161700000Y-58420000I-1680000J0D01*
G01*
X161700000Y-63420000D02*
G75*
G03*
X161700000Y-63420000I-1680000J0D01*
G01*
X161700000Y-68420000D02*
G75*
G03*
X161700000Y-68420000I-1680000J0D01*
G01*
X161700000Y-73420000D02*
G75*
G03*
X161700000Y-73420000I-1680000J0D01*
G01*
X161700000Y-78420000D02*
G75*
G03*
X161700000Y-78420000I-1680000J0D01*
G01*
X161700000Y-83420000D02*
G75*
G03*
X161700000Y-83420000I-1680000J0D01*
G01*
X161700000Y-88420000D02*
G75*
G03*
X161700000Y-88420000I-1680000J0D01*
G01*
X161700000Y-93420000D02*
G75*
G03*
X161700000Y-93420000I-1680000J0D01*
G01*
X161700000Y-98420000D02*
G75*
G03*
X161700000Y-98420000I-1680000J0D01*
G01*
%TO.C,K8*%
X96780000Y-110310000D02*
X96780000Y-116910000D01*
X96780000Y-110310000D02*
X116580000Y-110310000D01*
X96780000Y-119310000D02*
X96780000Y-125910000D01*
X100830000Y-118160000D02*
X100030000Y-118160000D01*
X100830000Y-118160000D02*
X100830000Y-121760000D01*
X101730000Y-124160000D02*
X104230000Y-124160000D01*
X102230000Y-116360000D02*
X106230000Y-116360000D01*
X102230000Y-119960000D02*
X102230000Y-116360000D01*
X104230000Y-112160000D02*
X101730000Y-112160000D01*
X104230000Y-112160000D02*
X104230000Y-116360000D01*
X104230000Y-119960000D02*
X104230000Y-124160000D01*
X106230000Y-116360000D02*
X106230000Y-119960000D01*
X106230000Y-119960000D02*
X102230000Y-116360000D01*
X106230000Y-119960000D02*
X102230000Y-119960000D01*
X107630000Y-118160000D02*
X107630000Y-121760000D01*
X107630000Y-118160000D02*
X109130000Y-118160000D01*
X107630000Y-121760000D02*
X100830000Y-121760000D01*
X109130000Y-118160000D02*
X113730000Y-115660000D01*
X112330000Y-113910000D02*
X112330000Y-116410000D01*
X112330000Y-122310000D02*
X112330000Y-119860000D01*
X116580000Y-110310000D02*
X116580000Y-125910000D01*
X116580000Y-125910000D02*
X96780000Y-125910000D01*
%TO.C,K3*%
X73920000Y-59510000D02*
X73920000Y-66110000D01*
X73920000Y-59510000D02*
X93720000Y-59510000D01*
X73920000Y-68510000D02*
X73920000Y-75110000D01*
X77970000Y-67360000D02*
X77170000Y-67360000D01*
X77970000Y-67360000D02*
X77970000Y-70960000D01*
X78870000Y-73360000D02*
X81370000Y-73360000D01*
X79370000Y-65560000D02*
X83370000Y-65560000D01*
X79370000Y-69160000D02*
X79370000Y-65560000D01*
X81370000Y-61360000D02*
X78870000Y-61360000D01*
X81370000Y-61360000D02*
X81370000Y-65560000D01*
X81370000Y-69160000D02*
X81370000Y-73360000D01*
X83370000Y-65560000D02*
X83370000Y-69160000D01*
X83370000Y-69160000D02*
X79370000Y-65560000D01*
X83370000Y-69160000D02*
X79370000Y-69160000D01*
X84770000Y-67360000D02*
X84770000Y-70960000D01*
X84770000Y-67360000D02*
X86270000Y-67360000D01*
X84770000Y-70960000D02*
X77970000Y-70960000D01*
X86270000Y-67360000D02*
X90870000Y-64860000D01*
X89470000Y-63110000D02*
X89470000Y-65610000D01*
X89470000Y-71510000D02*
X89470000Y-69060000D01*
X93720000Y-59510000D02*
X93720000Y-75110000D01*
X93720000Y-75110000D02*
X73920000Y-75110000D01*
%TO.C,J1*%
X50185000Y-119280000D02*
X50925000Y-119280000D01*
X50925000Y-119280000D02*
X50925000Y-118780000D01*
X40764000Y-119040000D02*
X50685000Y-119040000D01*
X40764000Y-119040000D02*
X40764000Y-68920000D01*
X43724000Y-119040000D02*
X43724000Y-68920000D01*
X48625000Y-119040000D02*
X48625000Y-68920000D01*
X50125000Y-119040000D02*
X50125000Y-68920000D01*
X50685000Y-119040000D02*
X50685000Y-68920000D01*
X47048000Y-112707000D02*
X47094000Y-112754000D01*
X47264000Y-112514000D02*
X47299000Y-112549000D01*
X44750000Y-110410000D02*
X44786000Y-110445000D01*
X44956000Y-110205000D02*
X45002000Y-110252000D01*
X47048000Y-107707000D02*
X47094000Y-107754000D01*
X47264000Y-107514000D02*
X47299000Y-107549000D01*
X44750000Y-105410000D02*
X44786000Y-105445000D01*
X44956000Y-105205000D02*
X45002000Y-105252000D01*
X47048000Y-102707000D02*
X47094000Y-102754000D01*
X47264000Y-102514000D02*
X47299000Y-102549000D01*
X44750000Y-100410000D02*
X44786000Y-100445000D01*
X44956000Y-100205000D02*
X45002000Y-100252000D01*
X47048000Y-97707000D02*
X47094000Y-97754000D01*
X47264000Y-97514000D02*
X47299000Y-97549000D01*
X44750000Y-95410000D02*
X44786000Y-95445000D01*
X44956000Y-95205000D02*
X45002000Y-95252000D01*
X47048000Y-92707000D02*
X47094000Y-92754000D01*
X47264000Y-92514000D02*
X47299000Y-92549000D01*
X44750000Y-90410000D02*
X44786000Y-90445000D01*
X44956000Y-90205000D02*
X45002000Y-90252000D01*
X47048000Y-87707000D02*
X47094000Y-87754000D01*
X47264000Y-87514000D02*
X47299000Y-87549000D01*
X44750000Y-85410000D02*
X44786000Y-85445000D01*
X44956000Y-85205000D02*
X45002000Y-85252000D01*
X47048000Y-82707000D02*
X47094000Y-82754000D01*
X47264000Y-82514000D02*
X47299000Y-82549000D01*
X44750000Y-80410000D02*
X44786000Y-80445000D01*
X44956000Y-80205000D02*
X45002000Y-80252000D01*
X47048000Y-77707000D02*
X47094000Y-77754000D01*
X47264000Y-77514000D02*
X47299000Y-77549000D01*
X44750000Y-75410000D02*
X44786000Y-75445000D01*
X44956000Y-75205000D02*
X45002000Y-75252000D01*
X47048000Y-72707000D02*
X47094000Y-72754000D01*
X47264000Y-72514000D02*
X47299000Y-72549000D01*
X44750000Y-70410000D02*
X44786000Y-70445000D01*
X44956000Y-70205000D02*
X45002000Y-70252000D01*
X40764000Y-68920000D02*
X50685000Y-68920000D01*
X45341001Y-118014999D02*
G75*
G03*
X46708042Y-118015426I684000J1534992D01*
G01*
X44490001Y-115796001D02*
G75*
G03*
X44489574Y-117163042I1534992J-684000D01*
G01*
X47559999Y-117164000D02*
G75*
G03*
X47705252Y-116451195I-1535000J683999D01*
G01*
X47704999Y-116480000D02*
G75*
G03*
X47559755Y-115796682I-1679999J0D01*
G01*
X46709000Y-114945000D02*
G75*
G03*
X45341958Y-114944574I-684000J-1535000D01*
G01*
X47705000Y-111480000D02*
G75*
G03*
X47705000Y-111480000I-1680000J0D01*
G01*
X47705000Y-106480000D02*
G75*
G03*
X47705000Y-106480000I-1680000J0D01*
G01*
X47705000Y-101480000D02*
G75*
G03*
X47705000Y-101480000I-1680000J0D01*
G01*
X47705000Y-96480000D02*
G75*
G03*
X47705000Y-96480000I-1680000J0D01*
G01*
X47705000Y-91480000D02*
G75*
G03*
X47705000Y-91480000I-1680000J0D01*
G01*
X47705000Y-86480000D02*
G75*
G03*
X47705000Y-86480000I-1680000J0D01*
G01*
X47705000Y-81480000D02*
G75*
G03*
X47705000Y-81480000I-1680000J0D01*
G01*
X47705000Y-76480000D02*
G75*
G03*
X47705000Y-76480000I-1680000J0D01*
G01*
X47705000Y-71480000D02*
G75*
G03*
X47705000Y-71480000I-1680000J0D01*
G01*
%TO.C,K5*%
X73920000Y-79830000D02*
X73920000Y-86430000D01*
X73920000Y-79830000D02*
X93720000Y-79830000D01*
X73920000Y-88830000D02*
X73920000Y-95430000D01*
X77970000Y-87680000D02*
X77170000Y-87680000D01*
X77970000Y-87680000D02*
X77970000Y-91280000D01*
X78870000Y-93680000D02*
X81370000Y-93680000D01*
X79370000Y-85880000D02*
X83370000Y-85880000D01*
X79370000Y-89480000D02*
X79370000Y-85880000D01*
X81370000Y-81680000D02*
X78870000Y-81680000D01*
X81370000Y-81680000D02*
X81370000Y-85880000D01*
X81370000Y-89480000D02*
X81370000Y-93680000D01*
X83370000Y-85880000D02*
X83370000Y-89480000D01*
X83370000Y-89480000D02*
X79370000Y-85880000D01*
X83370000Y-89480000D02*
X79370000Y-89480000D01*
X84770000Y-87680000D02*
X84770000Y-91280000D01*
X84770000Y-87680000D02*
X86270000Y-87680000D01*
X84770000Y-91280000D02*
X77970000Y-91280000D01*
X86270000Y-87680000D02*
X90870000Y-85180000D01*
X89470000Y-83430000D02*
X89470000Y-85930000D01*
X89470000Y-91830000D02*
X89470000Y-89380000D01*
X93720000Y-79830000D02*
X93720000Y-95430000D01*
X93720000Y-95430000D02*
X73920000Y-95430000D01*
%TO.C,K1*%
X73920000Y-37920000D02*
X73920000Y-44520000D01*
X73920000Y-37920000D02*
X93720000Y-37920000D01*
X73920000Y-46920000D02*
X73920000Y-53520000D01*
X77970000Y-45770000D02*
X77170000Y-45770000D01*
X77970000Y-45770000D02*
X77970000Y-49370000D01*
X78870000Y-51770000D02*
X81370000Y-51770000D01*
X79370000Y-43970000D02*
X83370000Y-43970000D01*
X79370000Y-47570000D02*
X79370000Y-43970000D01*
X81370000Y-39770000D02*
X78870000Y-39770000D01*
X81370000Y-39770000D02*
X81370000Y-43970000D01*
X81370000Y-47570000D02*
X81370000Y-51770000D01*
X83370000Y-43970000D02*
X83370000Y-47570000D01*
X83370000Y-47570000D02*
X79370000Y-43970000D01*
X83370000Y-47570000D02*
X79370000Y-47570000D01*
X84770000Y-45770000D02*
X84770000Y-49370000D01*
X84770000Y-45770000D02*
X86270000Y-45770000D01*
X84770000Y-49370000D02*
X77970000Y-49370000D01*
X86270000Y-45770000D02*
X90870000Y-43270000D01*
X89470000Y-41520000D02*
X89470000Y-44020000D01*
X89470000Y-49920000D02*
X89470000Y-47470000D01*
X93720000Y-37920000D02*
X93720000Y-53520000D01*
X93720000Y-53520000D02*
X73920000Y-53520000D01*
%TO.C,K2*%
X96780000Y-49350000D02*
X96780000Y-55950000D01*
X96780000Y-49350000D02*
X116580000Y-49350000D01*
X96780000Y-58350000D02*
X96780000Y-64950000D01*
X100830000Y-57200000D02*
X100030000Y-57200000D01*
X100830000Y-57200000D02*
X100830000Y-60800000D01*
X101730000Y-63200000D02*
X104230000Y-63200000D01*
X102230000Y-55400000D02*
X106230000Y-55400000D01*
X102230000Y-59000000D02*
X102230000Y-55400000D01*
X104230000Y-51200000D02*
X101730000Y-51200000D01*
X104230000Y-51200000D02*
X104230000Y-55400000D01*
X104230000Y-59000000D02*
X104230000Y-63200000D01*
X106230000Y-55400000D02*
X106230000Y-59000000D01*
X106230000Y-59000000D02*
X102230000Y-55400000D01*
X106230000Y-59000000D02*
X102230000Y-59000000D01*
X107630000Y-57200000D02*
X107630000Y-60800000D01*
X107630000Y-57200000D02*
X109130000Y-57200000D01*
X107630000Y-60800000D02*
X100830000Y-60800000D01*
X109130000Y-57200000D02*
X113730000Y-54700000D01*
X112330000Y-52950000D02*
X112330000Y-55450000D01*
X112330000Y-61350000D02*
X112330000Y-58900000D01*
X116580000Y-49350000D02*
X116580000Y-64950000D01*
X116580000Y-64950000D02*
X96780000Y-64950000D01*
%TO.C,K7*%
X73920000Y-100150000D02*
X73920000Y-106750000D01*
X73920000Y-100150000D02*
X93720000Y-100150000D01*
X73920000Y-109150000D02*
X73920000Y-115750000D01*
X77970000Y-108000000D02*
X77170000Y-108000000D01*
X77970000Y-108000000D02*
X77970000Y-111600000D01*
X78870000Y-114000000D02*
X81370000Y-114000000D01*
X79370000Y-106200000D02*
X83370000Y-106200000D01*
X79370000Y-109800000D02*
X79370000Y-106200000D01*
X81370000Y-102000000D02*
X78870000Y-102000000D01*
X81370000Y-102000000D02*
X81370000Y-106200000D01*
X81370000Y-109800000D02*
X81370000Y-114000000D01*
X83370000Y-106200000D02*
X83370000Y-109800000D01*
X83370000Y-109800000D02*
X79370000Y-106200000D01*
X83370000Y-109800000D02*
X79370000Y-109800000D01*
X84770000Y-108000000D02*
X84770000Y-111600000D01*
X84770000Y-108000000D02*
X86270000Y-108000000D01*
X84770000Y-111600000D02*
X77970000Y-111600000D01*
X86270000Y-108000000D02*
X90870000Y-105500000D01*
X89470000Y-103750000D02*
X89470000Y-106250000D01*
X89470000Y-112150000D02*
X89470000Y-109700000D01*
X93720000Y-100150000D02*
X93720000Y-115750000D01*
X93720000Y-115750000D02*
X73920000Y-115750000D01*
%TO.C,K4*%
X96780000Y-69670000D02*
X96780000Y-76270000D01*
X96780000Y-69670000D02*
X116580000Y-69670000D01*
X96780000Y-78670000D02*
X96780000Y-85270000D01*
X100830000Y-77520000D02*
X100030000Y-77520000D01*
X100830000Y-77520000D02*
X100830000Y-81120000D01*
X101730000Y-83520000D02*
X104230000Y-83520000D01*
X102230000Y-75720000D02*
X106230000Y-75720000D01*
X102230000Y-79320000D02*
X102230000Y-75720000D01*
X104230000Y-71520000D02*
X101730000Y-71520000D01*
X104230000Y-71520000D02*
X104230000Y-75720000D01*
X104230000Y-79320000D02*
X104230000Y-83520000D01*
X106230000Y-75720000D02*
X106230000Y-79320000D01*
X106230000Y-79320000D02*
X102230000Y-75720000D01*
X106230000Y-79320000D02*
X102230000Y-79320000D01*
X107630000Y-77520000D02*
X107630000Y-81120000D01*
X107630000Y-77520000D02*
X109130000Y-77520000D01*
X107630000Y-81120000D02*
X100830000Y-81120000D01*
X109130000Y-77520000D02*
X113730000Y-75020000D01*
X112330000Y-73270000D02*
X112330000Y-75770000D01*
X112330000Y-81670000D02*
X112330000Y-79220000D01*
X116580000Y-69670000D02*
X116580000Y-85270000D01*
X116580000Y-85270000D02*
X96780000Y-85270000D01*
%TD*%
M02*
