%TF.GenerationSoftware,KiCad,Pcbnew,7.0.8*%
%TF.CreationDate,2024-12-20T13:03:20+01:00*%
%TF.ProjectId,NosacReleja,4e6f7361-6352-4656-9c65-6a612e6b6963,rev?*%
%TF.SameCoordinates,Original*%
%TF.FileFunction,Copper,L2,Bot*%
%TF.FilePolarity,Positive*%
%FSLAX46Y46*%
G04 Gerber Fmt 4.6, Leading zero omitted, Abs format (unit mm)*
G04 Created by KiCad (PCBNEW 7.0.8) date 2024-12-20 13:03:20*
%MOMM*%
%LPD*%
G01*
G04 APERTURE LIST*
%TA.AperFunction,ComponentPad*%
%ADD10C,3.000000*%
%TD*%
%TA.AperFunction,ComponentPad*%
%ADD11C,2.500000*%
%TD*%
%TA.AperFunction,ComponentPad*%
%ADD12R,2.600000X2.600000*%
%TD*%
%TA.AperFunction,ComponentPad*%
%ADD13C,2.600000*%
%TD*%
%TA.AperFunction,ViaPad*%
%ADD14C,0.800000*%
%TD*%
%TA.AperFunction,Conductor*%
%ADD15C,0.500000*%
%TD*%
G04 APERTURE END LIST*
D10*
%TO.P,K6,1*%
%TO.N,Net-(J2-Pin_9)*%
X98180000Y-97790000D03*
D11*
%TO.P,K6,2*%
%TO.N,Net-(J1-Pin_4)*%
X100130000Y-103840000D03*
D10*
%TO.P,K6,3*%
%TO.N,Net-(J2-Pin_6)*%
X112330000Y-103840000D03*
%TO.P,K6,4*%
%TO.N,unconnected-(K6-Pad4)*%
X112380000Y-91790000D03*
D11*
%TO.P,K6,5*%
%TO.N,Net-(J1-Pin_10)*%
X100130000Y-91840000D03*
%TD*%
D12*
%TO.P,J2,1,Pin_1*%
%TO.N,Net-(J2-Pin_1)*%
X160020000Y-53420000D03*
D13*
%TO.P,J2,2,Pin_2*%
%TO.N,Net-(J2-Pin_2)*%
X160020000Y-58420000D03*
%TO.P,J2,3,Pin_3*%
%TO.N,Net-(J2-Pin_3)*%
X160020000Y-63420000D03*
%TO.P,J2,4,Pin_4*%
%TO.N,Net-(J2-Pin_4)*%
X160020000Y-68420000D03*
%TO.P,J2,5,Pin_5*%
%TO.N,Net-(J2-Pin_5)*%
X160020000Y-73420000D03*
%TO.P,J2,6,Pin_6*%
%TO.N,Net-(J2-Pin_6)*%
X160020000Y-78420000D03*
%TO.P,J2,7,Pin_7*%
%TO.N,Net-(J2-Pin_7)*%
X160020000Y-83420000D03*
%TO.P,J2,8,Pin_8*%
%TO.N,Net-(J2-Pin_8)*%
X160020000Y-88420000D03*
%TO.P,J2,9,Pin_9*%
%TO.N,Net-(J2-Pin_9)*%
X160020000Y-93420000D03*
%TO.P,J2,10,Pin_10*%
%TO.N,unconnected-(J2-Pin_10-Pad10)*%
X160020000Y-98420000D03*
%TD*%
D10*
%TO.P,K8,1*%
%TO.N,Net-(J2-Pin_9)*%
X98180000Y-118110000D03*
D11*
%TO.P,K8,2*%
%TO.N,Net-(J1-Pin_2)*%
X100130000Y-124160000D03*
D10*
%TO.P,K8,3*%
%TO.N,Net-(J2-Pin_8)*%
X112330000Y-124160000D03*
%TO.P,K8,4*%
%TO.N,unconnected-(K8-Pad4)*%
X112380000Y-112110000D03*
D11*
%TO.P,K8,5*%
%TO.N,Net-(J1-Pin_10)*%
X100130000Y-112160000D03*
%TD*%
D10*
%TO.P,K3,1*%
%TO.N,Net-(J2-Pin_9)*%
X75320000Y-67310000D03*
D11*
%TO.P,K3,2*%
%TO.N,Net-(J1-Pin_7)*%
X77270000Y-73360000D03*
D10*
%TO.P,K3,3*%
%TO.N,Net-(J2-Pin_3)*%
X89470000Y-73360000D03*
%TO.P,K3,4*%
%TO.N,unconnected-(K3-Pad4)*%
X89520000Y-61310000D03*
D11*
%TO.P,K3,5*%
%TO.N,Net-(J1-Pin_10)*%
X77270000Y-61360000D03*
%TD*%
D12*
%TO.P,J1,1,Pin_1*%
%TO.N,unconnected-(J1-Pin_1-Pad1)*%
X46025000Y-116480000D03*
D13*
%TO.P,J1,2,Pin_2*%
%TO.N,Net-(J1-Pin_2)*%
X46025000Y-111480000D03*
%TO.P,J1,3,Pin_3*%
%TO.N,Net-(J1-Pin_3)*%
X46025000Y-106480000D03*
%TO.P,J1,4,Pin_4*%
%TO.N,Net-(J1-Pin_4)*%
X46025000Y-101480000D03*
%TO.P,J1,5,Pin_5*%
%TO.N,Net-(J1-Pin_5)*%
X46025000Y-96480000D03*
%TO.P,J1,6,Pin_6*%
%TO.N,Net-(J1-Pin_6)*%
X46025000Y-91480000D03*
%TO.P,J1,7,Pin_7*%
%TO.N,Net-(J1-Pin_7)*%
X46025000Y-86480000D03*
%TO.P,J1,8,Pin_8*%
%TO.N,Net-(J1-Pin_8)*%
X46025000Y-81480000D03*
%TO.P,J1,9,Pin_9*%
%TO.N,Net-(J1-Pin_9)*%
X46025000Y-76480000D03*
%TO.P,J1,10,Pin_10*%
%TO.N,Net-(J1-Pin_10)*%
X46025000Y-71480000D03*
%TD*%
D10*
%TO.P,K5,1*%
%TO.N,Net-(J2-Pin_9)*%
X75320000Y-87630000D03*
D11*
%TO.P,K5,2*%
%TO.N,Net-(J1-Pin_5)*%
X77270000Y-93680000D03*
D10*
%TO.P,K5,3*%
%TO.N,Net-(J2-Pin_5)*%
X89470000Y-93680000D03*
%TO.P,K5,4*%
%TO.N,unconnected-(K5-Pad4)*%
X89520000Y-81630000D03*
D11*
%TO.P,K5,5*%
%TO.N,Net-(J1-Pin_10)*%
X77270000Y-81680000D03*
%TD*%
D10*
%TO.P,K1,1*%
%TO.N,Net-(J2-Pin_9)*%
X75320000Y-45720000D03*
D11*
%TO.P,K1,2*%
%TO.N,Net-(J1-Pin_9)*%
X77270000Y-51770000D03*
D10*
%TO.P,K1,3*%
%TO.N,Net-(J2-Pin_1)*%
X89470000Y-51770000D03*
%TO.P,K1,4*%
%TO.N,unconnected-(K1-Pad4)*%
X89520000Y-39720000D03*
D11*
%TO.P,K1,5*%
%TO.N,Net-(J1-Pin_10)*%
X77270000Y-39770000D03*
%TD*%
D10*
%TO.P,K2,1*%
%TO.N,Net-(J2-Pin_9)*%
X98180000Y-57150000D03*
D11*
%TO.P,K2,2*%
%TO.N,Net-(J1-Pin_8)*%
X100130000Y-63200000D03*
D10*
%TO.P,K2,3*%
%TO.N,Net-(J2-Pin_2)*%
X112330000Y-63200000D03*
%TO.P,K2,4*%
%TO.N,unconnected-(K2-Pad4)*%
X112380000Y-51150000D03*
D11*
%TO.P,K2,5*%
%TO.N,Net-(J1-Pin_10)*%
X100130000Y-51200000D03*
%TD*%
D10*
%TO.P,K7,1*%
%TO.N,Net-(J2-Pin_9)*%
X75320000Y-107950000D03*
D11*
%TO.P,K7,2*%
%TO.N,Net-(J1-Pin_3)*%
X77270000Y-114000000D03*
D10*
%TO.P,K7,3*%
%TO.N,Net-(J2-Pin_7)*%
X89470000Y-114000000D03*
%TO.P,K7,4*%
%TO.N,unconnected-(K7-Pad4)*%
X89520000Y-101950000D03*
D11*
%TO.P,K7,5*%
%TO.N,Net-(J1-Pin_10)*%
X77270000Y-102000000D03*
%TD*%
D10*
%TO.P,K4,1*%
%TO.N,Net-(J2-Pin_9)*%
X98180000Y-77470000D03*
D11*
%TO.P,K4,2*%
%TO.N,Net-(J1-Pin_6)*%
X100130000Y-83520000D03*
D10*
%TO.P,K4,3*%
%TO.N,Net-(J2-Pin_4)*%
X112330000Y-83520000D03*
%TO.P,K4,4*%
%TO.N,unconnected-(K4-Pad4)*%
X112380000Y-71470000D03*
D11*
%TO.P,K4,5*%
%TO.N,Net-(J1-Pin_10)*%
X100130000Y-71520000D03*
%TD*%
D14*
%TO.N,Net-(J1-Pin_4)*%
X92710000Y-105410000D03*
X71120000Y-105410000D03*
%TO.N,Net-(J1-Pin_6)*%
X93980000Y-85090000D03*
X71120000Y-91440000D03*
%TO.N,Net-(J1-Pin_8)*%
X93980000Y-64770000D03*
X69850000Y-64770000D03*
%TO.N,Net-(J1-Pin_10)*%
X105410000Y-71520000D03*
X105410000Y-102870000D03*
X52070000Y-71120000D03*
X68580000Y-97790000D03*
X105410000Y-111760000D03*
X62230000Y-71120000D03*
X62230000Y-71120000D03*
X62230000Y-78740000D03*
X105410000Y-83820000D03*
X62230000Y-71120000D03*
X105410000Y-62230000D03*
X74930000Y-78740000D03*
X105410000Y-43180000D03*
X52070000Y-71120000D03*
X52070000Y-71120000D03*
X105410000Y-51200000D03*
X105410000Y-91840000D03*
%TD*%
D15*
%TO.N,Net-(J1-Pin_4)*%
X92710000Y-105410000D02*
X71120000Y-105410000D01*
%TO.N,Net-(J1-Pin_6)*%
X93980000Y-85090000D02*
X86360000Y-85090000D01*
X86360000Y-91440000D02*
X71120000Y-91440000D01*
X86360000Y-85090000D02*
X86360000Y-91440000D01*
%TO.N,Net-(J1-Pin_8)*%
X93980000Y-64770000D02*
X69850000Y-64770000D01*
%TO.N,Net-(J1-Pin_10)*%
X68580000Y-97790000D02*
X68580000Y-78740000D01*
X105410000Y-111760000D02*
X105410000Y-102870000D01*
X105410000Y-71520000D02*
X105410000Y-62230000D01*
X62230000Y-71120000D02*
X52070000Y-71120000D01*
X105410000Y-91840000D02*
X105410000Y-83820000D01*
X68580000Y-78740000D02*
X74930000Y-78740000D01*
X62230000Y-78740000D02*
X68580000Y-78740000D01*
X105410000Y-51200000D02*
X105410000Y-43180000D01*
%TD*%
M02*
