0
SECTION
2
HEADER
9
$INSUNITS
70
4
9
$ACADVER
1
AC1014
9
$HANDSEED
5
FFFF
0
ENDSEC
0
SECTION
2
TABLES
0
TABLE
2
VPORT
5
8
100
AcDbSymbolTable
0
ENDTAB
0
TABLE
2
LTYPE
5
5
100
AcDbSymbolTable
0
LTYPE
5
14
100
AcDbSymbolTableRecord
100
AcDbLinetypeTableRecord
2
BYBLOCK
70
0
0
LTYPE
5
15
100
AcDbSymbolTableRecord
100
AcDbLinetypeTableRecord
2
BYLAYER
70
0
0
ENDTAB
0
TABLE
2
LAYER
5
2
100
AcDbSymbolTable
70
2
0
LAYER
5
50
100
AcDbSymbolTableRecord
100
AcDbLayerTableRecord
2
0
70
0
6
CONTINUOUS
0
ENDTAB
0
TABLE
2
STYLE
5
3
100
AcDbSymbolTable
70
1
0
STYLE
5
11
100
AcDbSymbolTableRecord
100
AcDbTextStyleTableRecord
2
STANDARD
70
0
0
ENDTAB
0
TABLE
2
VIEW
5
6
100
AcDbSymbolTable
70
0
0
ENDTAB
0
TABLE
2
UCS
5
7
100
AcDbSymbolTable
70
0
0
ENDTAB
0
TABLE
2
APPID
5
9
100
AcDbSymbolTable
70
2
0
APPID
5
12
100
AcDbSymbolTableRecord
100
AcDbRegAppTableRecord
2
ACAD
70
0
0
ENDTAB
0
TABLE
2
DIMSTYLE
5
A
100
AcDbSymbolTable
70
1
0
ENDTAB
0
TABLE
2
BLOCK_RECORD
5
1
100
AcDbSymbolTable
70
1
0
BLOCK_RECORD
5
1F
100
AcDbSymbolTableRecord
100
AcDbBlockTableRecord
2
*MODEL_SPACE
0
BLOCK_RECORD
5
1B
100
AcDbSymbolTableRecord
100
AcDbBlockTableRecord
2
*PAPER_SPACE
0
ENDTAB
0
ENDSEC
0
SECTION
2
BLOCKS
0
BLOCK
5
20
100
AcDbEntity
100
AcDbBlockBegin
2
*MODEL_SPACE
0
ENDBLK
5
21
100
AcDbEntity
100
AcDbBlockEnd
0
BLOCK
5
1C
100
AcDbEntity
100
AcDbBlockBegin
2
*PAPER_SPACE
0
ENDBLK
5
1D
100
AcDbEntity
100
AcDbBlockEnd
0
ENDSEC
0
SECTION
2
ENTITIES
0
LWPOLYLINE
5
100
100
AcDbEntity
8
0
100
AcDbPolyline
90
25
70
1
43
0.0
10
100
20
0
10
-700
20
0
10
-700
20
-600
10
-700
20
-2600
10
-100
20
-3200
10
-100.82842712474609
20
-3202
10
-702
20
-2600.8284271247458
10
-700
20
-2600
10
900
20
-2600
10
300
20
-3200
10
-100
20
-3200
10
-100
20
-3500
10
300
20
-3500
10
300
20
-3200
10
300.8284271247461
20
-3202
10
902
20
-2600.8284271247458
10
900
20
-2600
10
900
20
-600
10
-700
20
-600
10
-702
20
-599.08013015505935
10
-100
20
0
10
300
20
0
10
902
20
-599.08013015505924
10
900
20
-600
10
900
20
0
0
LINE
5
101
100
AcDbEntity
8
0
100
AcDbLine
10
900
20
-600
30
0
11
600
21
-600
31
0
0
LINE
5
102
100
AcDbEntity
8
0
100
AcDbLine
10
-700
20
-600
30
0
11
-400
21
-600
31
0
0
LWPOLYLINE
5
103
100
AcDbEntity
8
0
100
AcDbPolyline
90
19
70
1
43
0.0
10
600
20
-600
10
600
20
-2600
10
300
20
-2900
10
-100
20
-2900
10
-400
20
-2600
10
-100
20
-2600
10
-100
20
0
10
-99.174419562103793
20
-2.0000000298021092
10
299.17441956210388
20
-2.0000000298023224
10
300
20
0
10
300
20
-2600
10
300
20
-2900
10
299.1715728752539
20
-2898
10
-99.171572875253915
20
-2898
10
-397.99999999999989
20
-2599.1715728752542
10
-400
20
-2600
10
-400
20
-600
10
-100
20
-300
10
300
20
-300
0
ARC
5
104
100
AcDbEntity
8
0
100
AcDbCircle
10
200
20
-19.141713472620804
30
0
40
19.1417134726208
210
0
220
-0
230
1
100
AcDbArc
50
8.797410709991091
51
90
0
LINE
5
105
100
AcDbEntity
8
0
100
AcDbLine
10
200
20
0
30
0
11
200
21
-300
31
0
0
LINE
5
106
100
AcDbEntity
8
0
100
AcDbLine
10
0
20
0
30
0
11
0
21
-300
31
0
0
LINE
5
107
100
AcDbEntity
8
0
100
AcDbLine
10
0
20
-300
30
0
11
200
21
-300
31
0
0
LINE
5
108
100
AcDbEntity
8
0
100
AcDbLine
10
600
20
-2600
30
0
11
300
21
-2600
31
0
0
LINE
5
109
100
AcDbEntity
8
0
100
AcDbLine
10
-100
20
-2600
30
0
11
-100
21
-2900
31
0
0
LINE
5
110
100
AcDbEntity
8
0
100
AcDbLine
10
300
20
-2900
30
0
11
300
21
-3200
31
0
0
LINE
5
111
100
AcDbEntity
8
0
100
AcDbLine
10
600
20
-600
30
0
11
600
21
-1200
31
0
0
LINE
5
112
100
AcDbEntity
8
0
100
AcDbLine
10
600
20
-1200
30
0
11
-400
21
-1200
31
0
0
LINE
5
113
100
AcDbEntity
8
0
100
AcDbLine
10
902
20
-599.08013015505924
30
0
11
902
21
-2600.8284271247458
31
0
0
LINE
5
114
100
AcDbEntity
8
0
100
AcDbLine
10
300.8284271247461
20
-3202
30
0
11
-100.82842712474609
21
-3202
31
0
0
LINE
5
115
100
AcDbEntity
8
0
100
AcDbLine
10
-702
20
-2600.8284271247458
30
0
11
-702
21
-599.08013015505935
31
0
0
LINE
5
116
100
AcDbEntity
8
0
100
AcDbLine
10
-398
20
-601
30
0
11
-397.99999999999989
21
-2599.1715728752542
31
0
0
LINE
5
117
100
AcDbEntity
8
0
100
AcDbLine
10
598
20
-601
30
0
11
598
21
-2599.1715728752542
31
0
0
LINE
5
118
100
AcDbEntity
8
0
100
AcDbLine
10
299.1715728752539
20
-2898
30
0
11
598
21
-2599.1715728752542
31
0
0
LINE
5
119
100
AcDbEntity
8
0
100
AcDbLine
10
-400
20
-600
30
0
11
-398
21
-601
31
0
0
LINE
5
120
100
AcDbEntity
8
0
100
AcDbLine
10
598
20
-601
30
0
11
600
21
-600
31
0
0
LINE
5
121
100
AcDbEntity
8
0
100
AcDbLine
10
598
20
-2599.1715728752542
30
0
11
600
21
-2600
31
0
0
LINE
5
122
100
AcDbEntity
8
0
100
AcDbLine
10
-99.171572875253915
20
-2898
30
0
11
-100
21
-2900
31
0
0
LINE
5
123
100
AcDbEntity
8
0
100
AcDbLine
10
600
20
-1198.9999999850988
30
0
11
-400
21
-1198.9999999850988
31
0
0
LINE
5
124
100
AcDbEntity
8
0
100
AcDbLine
10
203.07318148576428
20
0
30
0
11
203.43588782116913
21
-0.31089114463272116
31
0
0
LINE
5
125
100
AcDbEntity
8
0
100
AcDbLine
10
900
20
-597.36584444077357
30
0
11
902
21
-599.08013015505924
31
0
0
LINE
5
126
100
AcDbEntity
8
0
100
AcDbLine
10
-702
20
-599.08013015505935
30
0
11
-700
21
-597.36584444077357
31
0
0
LINE
5
127
100
AcDbEntity
8
0
100
AcDbLine
10
-100
20
-300
30
0
11
-98.585786437626908
21
-301.41421356237311
31
0
0
LINE
5
128
100
AcDbEntity
8
0
100
AcDbLine
10
-98.585786437626908
20
-301.41421356237311
30
0
11
-398
21
-601
31
0
0
LINE
5
129
100
AcDbEntity
8
0
100
AcDbLine
10
300
20
-300
30
0
11
298.58578643762684
21
-301.41421356237311
31
0
0
LINE
5
130
100
AcDbEntity
8
0
100
AcDbLine
10
298.58578643762684
20
-301.41421356237311
30
0
11
598
21
-601
31
0
0
LINE
5
131
100
AcDbEntity
8
0
100
AcDbLine
10
292.71793232767982
20
-300
30
0
11
292.71793232767982
21
-301
31
0
0
LINE
5
132
100
AcDbEntity
8
0
100
AcDbLine
10
292.71793232767982
20
-301
30
0
11
298.99999999999994
21
-301
31
0
0
LINE
5
133
100
AcDbEntity
8
0
100
AcDbLine
10
-94.984958780010913
20
-300
30
0
11
-94.984958780010913
21
-301
31
0
0
LINE
5
134
100
AcDbEntity
8
0
100
AcDbLine
10
-94.984958780010913
20
-301
30
0
11
292.71793232767982
21
-301
31
0
0
LINE
5
135
100
AcDbEntity
8
0
100
AcDbLine
10
-94.984958780010913
20
-301
30
0
11
-95.272332946061837
21
-301
31
0
0
LINE
5
136
100
AcDbEntity
8
0
100
AcDbLine
10
-95.272332946061837
20
-301
30
0
11
-98.999999999999986
21
-301
31
0
0
LINE
5
137
100
AcDbEntity
8
0
100
AcDbLine
10
-103.62393640731817
20
-3.6063592933053457
30
0
11
-102.21316501876069
21
-5.0240066716147851
31
0
0
LINE
5
138
100
AcDbEntity
8
0
100
AcDbLine
10
-700.58922859042036
20
-600.49777755449338
30
0
11
-99.174419562103751
21
-2.0000000298021092
31
0
0
LINE
5
139
100
AcDbEntity
8
0
100
AcDbLine
10
900.58922859042036
20
-600.49777755449327
30
0
11
299.17441956210388
21
-2.0000000298023224
31
0
0
ENDSEC
0
SECTION
2
OBJECTS
0
DICTIONARY
5
C
100
AcDbDictionary
3
ACAD_GROUP
350
D
3
ACAD_MLINESTYLE
350
17
0
DICTIONARY
5
D
100
AcDbDictionary
0
DICTIONARY
5
1A
330
C
100
AcDbDictionary
0
DICTIONARY
5
17
100
AcDbDictionary
0
ENDSEC
0
EOF
