0
SECTION
2
HEADER
9
$INSUNITS
70
4
9
$ACADVER
1
AC1014
9
$HANDSEED
5
FFFF
0
ENDSEC
0
SECTION
2
TABLES
0
TABLE
2
VPORT
5
8
100
AcDbSymbolTable
0
ENDTAB
0
TABLE
2
LTYPE
5
5
100
AcDbSymbolTable
0
LTYPE
5
14
100
AcDbSymbolTableRecord
100
AcDbLinetypeTableRecord
2
BYBLOCK
70
0
0
LTYPE
5
15
100
AcDbSymbolTableRecord
100
AcDbLinetypeTableRecord
2
BYLAYER
70
0
0
ENDTAB
0
TABLE
2
LAYER
5
2
100
AcDbSymbolTable
70
2
0
LAYER
5
50
100
AcDbSymbolTableRecord
100
AcDbLayerTableRecord
2
0
70
0
6
CONTINUOUS
0
ENDTAB
0
TABLE
2
STYLE
5
3
100
AcDbSymbolTable
70
1
0
STYLE
5
11
100
AcDbSymbolTableRecord
100
AcDbTextStyleTableRecord
2
STANDARD
70
0
0
ENDTAB
0
TABLE
2
VIEW
5
6
100
AcDbSymbolTable
70
0
0
ENDTAB
0
TABLE
2
UCS
5
7
100
AcDbSymbolTable
70
0
0
ENDTAB
0
TABLE
2
APPID
5
9
100
AcDbSymbolTable
70
2
0
APPID
5
12
100
AcDbSymbolTableRecord
100
AcDbRegAppTableRecord
2
ACAD
70
0
0
ENDTAB
0
TABLE
2
DIMSTYLE
5
A
100
AcDbSymbolTable
70
1
0
ENDTAB
0
TABLE
2
BLOCK_RECORD
5
1
100
AcDbSymbolTable
70
1
0
BLOCK_RECORD
5
1F
100
AcDbSymbolTableRecord
100
AcDbBlockTableRecord
2
*MODEL_SPACE
0
BLOCK_RECORD
5
1B
100
AcDbSymbolTableRecord
100
AcDbBlockTableRecord
2
*PAPER_SPACE
0
ENDTAB
0
ENDSEC
0
SECTION
2
BLOCKS
0
BLOCK
5
20
100
AcDbEntity
100
AcDbBlockBegin
2
*MODEL_SPACE
0
ENDBLK
5
21
100
AcDbEntity
100
AcDbBlockEnd
0
BLOCK
5
1C
100
AcDbEntity
100
AcDbBlockBegin
2
*PAPER_SPACE
0
ENDBLK
5
1D
100
AcDbEntity
100
AcDbBlockEnd
0
ENDSEC
0
SECTION
2
ENTITIES
0
LINE
5
100
100
AcDbEntity
8
0
100
AcDbLine
10
-400
20
-600
30
0
11
-400
21
-2600
31
0
0
LINE
5
101
100
AcDbEntity
8
0
100
AcDbLine
10
-100
20
-2900
30
0
11
-400
21
-2600
31
0
0
LINE
5
102
100
AcDbEntity
8
0
100
AcDbLine
10
-700
20
-2600
30
0
11
-700
21
-600
31
0
0
LINE
5
103
100
AcDbEntity
8
0
100
AcDbLine
10
-100
20
-3200
30
0
11
-700
21
-2600
31
0
0
LINE
5
104
100
AcDbEntity
8
0
100
AcDbLine
10
600
20
-600
30
0
11
600
21
-2600
31
0
0
LINE
5
105
100
AcDbEntity
8
0
100
AcDbLine
10
300
20
-2900
30
0
11
600
21
-2600
31
0
0
LINE
5
106
100
AcDbEntity
8
0
100
AcDbLine
10
300
20
-3200
30
0
11
900
21
-2600
31
0
0
LINE
5
107
100
AcDbEntity
8
0
100
AcDbLine
10
900
20
-600
30
0
11
900
21
-2600
31
0
0
LINE
5
108
100
AcDbEntity
8
0
100
AcDbLine
10
-400
20
-2600
30
0
11
-700
21
-2600
31
0
0
LINE
5
109
100
AcDbEntity
8
0
100
AcDbLine
10
-400
20
-2600
30
0
11
-625
21
-2600
31
0
0
LINE
5
110
100
AcDbEntity
8
0
100
AcDbLine
10
-400
20
-2600
30
0
11
-475
21
-2600
31
0
0
LINE
5
111
100
AcDbEntity
8
0
100
AcDbLine
10
-475
20
-2600
30
0
11
-475
21
-2550
31
0
0
LWPOLYLINE
5
112
100
AcDbEntity
8
0
100
AcDbPolyline
90
8
70
1
43
0.0
10
-475
20
-2550
10
-475
20
-2450
10
-625
20
-2300
10
-626.41032733273369
20
-2301.4180891419601
10
-476.41032733273369
20
-2450.5970748985819
10
-475
20
-2449.1789857566218
10
-477
20
-2449.1789857566218
10
-477
20
-2550
0
LINE
5
113
100
AcDbEntity
8
0
100
AcDbLine
10
-475
20
-2449.1789857566218
30
0
11
-475
21
-2550
31
0
0
LINE
5
114
100
AcDbEntity
8
0
100
AcDbLine
10
-475
20
-2449.1789857566218
30
0
11
-625
21
-2300
31
0
0
LINE
5
115
100
AcDbEntity
8
0
100
AcDbLine
10
-400
20
-2600
30
0
11
600
21
-2600
31
0
0
LINE
5
116
100
AcDbEntity
8
0
100
AcDbLine
10
100
20
-2600
30
0
11
100
21
-3397.3632405160088
31
0
0
LINE
5
117
100
AcDbEntity
8
0
100
AcDbLine
10
100
20
-3397.3632405160088
30
0
11
100
21
210.49415519201148
31
0
0
LWPOLYLINE
5
118
100
AcDbEntity
8
0
100
AcDbPolyline
90
4
70
1
43
0.0
10
825
20
-2300
10
826.41032733273369
20
-2301.4180891419601
10
676.41032733273369
20
-2450.5970748985819
10
675
20
-2449.1789857566218
0
LWPOLYLINE
5
119
100
AcDbEntity
8
0
100
AcDbPolyline
90
4
70
1
43
0.0
10
677
20
-2449.1789857566218
10
675
20
-2449.1789857566218
10
675
20
-2550
10
677
20
-2550
0
LINE
5
120
100
AcDbEntity
8
0
100
AcDbLine
10
200
20
-300
30
0
11
600
21
-600
31
0
0
LINE
5
121
100
AcDbEntity
8
0
100
AcDbLine
10
199.33333333333334
20
-302
30
0
11
598
21
-601
31
0
0
LINE
5
122
100
AcDbEntity
8
0
100
AcDbLine
10
200
20
0
30
0
11
900
21
-600
31
0
0
LINE
5
123
100
AcDbEntity
8
0
100
AcDbLine
10
0
20
-300
30
0
11
200
21
-300
31
0
0
LINE
5
124
100
AcDbEntity
8
0
100
AcDbLine
10
0.66666666666667784
20
-302
30
0
11
199.33333333333334
21
-302
31
0
0
LINE
5
125
100
AcDbEntity
8
0
100
AcDbLine
10
0
20
-300
30
0
11
-400
21
-600
31
0
0
LINE
5
126
100
AcDbEntity
8
0
100
AcDbLine
10
0.66666666666667784
20
-302
30
0
11
-398
21
-601
31
0
0
LINE
5
127
100
AcDbEntity
8
0
100
AcDbLine
10
-700
20
-600
30
0
11
0
21
0
31
0
0
LINE
5
128
100
AcDbEntity
8
0
100
AcDbLine
10
-0.7398481524310796
20
2.0000000000000284
30
0
11
200.73984815243097
21
1.9999999999999962
31
0
0
LINE
5
129
100
AcDbEntity
8
0
100
AcDbLine
10
0
20
0
30
0
11
200
21
0
31
0
0
LINE
5
130
100
AcDbEntity
8
0
100
AcDbLine
10
0
20
-300
30
0
11
0
21
-100
31
0
0
LINE
5
131
100
AcDbEntity
8
0
100
AcDbLine
10
0
20
-100
30
0
11
200
21
-100
31
0
0
LINE
5
132
100
AcDbEntity
8
0
100
AcDbLine
10
200
20
-100
30
0
11
200
21
-300
31
0
0
LWPOLYLINE
5
133
100
AcDbEntity
8
0
100
AcDbPolyline
90
4
70
1
43
0.0
10
0
20
-300
10
2
20
-300
10
2
20
-100
10
0
20
-100
0
LWPOLYLINE
5
134
100
AcDbEntity
8
0
100
AcDbPolyline
90
4
70
1
43
0.0
10
200
20
-300
10
198
20
-300
10
198
20
-100
10
200
20
-100
0
LINE
5
135
100
AcDbEntity
8
0
100
AcDbLine
10
203.07318148576428
20
0
30
0
11
203.43588782116913
21
-0.31089114463272116
31
0
0
LINE
5
136
100
AcDbEntity
8
0
100
AcDbLine
10
-702
20
-599.08013015505935
30
0
11
-700
21
-597.36584444077357
31
0
0
ENDSEC
0
SECTION
2
OBJECTS
0
DICTIONARY
5
C
100
AcDbDictionary
3
ACAD_GROUP
350
D
3
ACAD_MLINESTYLE
350
17
0
DICTIONARY
5
D
100
AcDbDictionary
0
DICTIONARY
5
1A
330
C
100
AcDbDictionary
0
DICTIONARY
5
17
100
AcDbDictionary
0
ENDSEC
0
EOF
